<svg width="22" height="18" viewBox="0 0 22 18" fill="none" xmlns="http://www.w3.org/2000/svg">
<path d="M15.9735 6.61875L11.7922 0.398438C11.6094 0.13125 11.3047 0 11 0C10.6953 0 10.3907 0.13125 10.2078 0.407812L6.02659 6.61875H1.45628C0.931281 6.61875 0.500031 7.04531 0.500031 7.56562C0.500031 7.65 0.509405 7.73437 0.53753 7.82344L2.96097 16.6125C3.18128 17.4094 3.91722 17.9953 4.79378 17.9953H17.2016C18.0782 17.9953 18.8141 17.4094 19.0438 16.6125L21.4672 7.82344L21.4953 7.56562C21.4953 7.04531 21.0641 6.61875 20.5391 6.61875H15.9735ZM8.13597 6.61875L11 2.44687L13.8641 6.61875H8.13597ZM11 14.2078C9.95003 14.2078 9.09222 13.3547 9.09222 12.3094C9.09222 11.2641 9.95003 10.4109 11 10.4109C12.05 10.4109 12.9078 11.2641 12.9078 12.3094C12.9078 13.3547 12.05 14.2078 11 14.2078Z" fill="#64BD79"/>
</svg>
