<svg width="14" height="12" viewBox="0 0 14 12" fill="none" xmlns="http://www.w3.org/2000/svg">
<path d="M10.3156 4.4125L7.52812 0.265625C7.40625 0.0875 7.20312 0 7 0C6.79688 0 6.59375 0.0874999 6.47188 0.271875L3.68437 4.4125H0.6375C0.2875 4.4125 0 4.69687 0 5.04375C0 5.1 0.00624998 5.15625 0.025 5.21562L1.64062 11.075C1.7875 11.6062 2.27812 11.9969 2.8625 11.9969H11.1344C11.7188 11.9969 12.2094 11.6062 12.3625 11.075L13.9781 5.21562L13.9969 5.04375C13.9969 4.69687 13.7094 4.4125 13.3594 4.4125H10.3156ZM5.09062 4.4125L7 1.63125L8.90938 4.4125H5.09062ZM7 9.47188C6.3 9.47188 5.72813 8.90312 5.72813 8.20625C5.72813 7.50938 6.3 6.94063 7 6.94063C7.7 6.94063 8.27188 7.50938 8.27188 8.20625C8.27188 8.90312 7.7 9.47188 7 9.47188Z" fill="#4D9A5F"/>
</svg>
