<?xml version="1.0" encoding="UTF-8"?>
<svg xmlns="http://www.w3.org/2000/svg" xmlns:xlink="http://www.w3.org/1999/xlink" width="12pt" height="12pt" viewBox="0 0 12 12" version="1.1">
<g id="surface1">
<path style=" stroke:none;fill-rule:nonzero;fill:rgb(100%,100%,100%);fill-opacity:1;" d="M 6 1.042969 C 3.261719 1.042969 1.042969 3.261719 1.042969 6 C 1.042969 8.742188 3.261719 10.960938 6 10.960938 C 8.742188 10.960938 10.960938 8.742188 10.960938 6.003906 C 10.960938 3.265625 8.742188 1.046875 6.003906 1.046875 Z M 6 10.042969 C 3.769531 10.042969 1.960938 8.234375 1.960938 6 C 1.960938 3.769531 3.769531 1.957031 6 1.957031 C 8.234375 1.957031 10.042969 3.769531 10.042969 6 C 10.042969 8.234375 8.234375 10.042969 6 10.042969 Z M 6 10.042969 "/>
<path style=" stroke:none;fill-rule:nonzero;fill:rgb(100%,100%,100%);fill-opacity:1;" d="M 5.882812 3.34375 C 4.632812 3.34375 4.273438 4.4375 4.273438 4.4375 L 4.980469 4.863281 C 4.980469 4.863281 5.128906 4.46875 5.429688 4.25 C 5.6875 4.0625 6.242188 3.9375 6.539062 4.3125 C 6.890625 4.753906 6.453125 5.105469 6 5.671875 C 5.523438 6.265625 5.5 7.5 5.5 7.5 L 6.484375 7.5 C 6.484375 7.5 6.550781 6.339844 7.003906 5.808594 C 7.304688 5.457031 7.726562 5.140625 7.726562 4.5625 C 7.726562 3.984375 7.132812 3.34375 5.882812 3.34375 Z M 5.882812 3.34375 "/>
<path style=" stroke:none;fill-rule:nonzero;fill:rgb(100%,100%,100%);fill-opacity:1;" d="M 5.5 8 L 6.5 8 L 6.5 9 L 5.5 9 Z M 5.5 8 "/>
</g>
</svg>
