<svg width="20" height="20" viewBox="0 0 20 20" fill="none" xmlns="http://www.w3.org/2000/svg">
<path d="M9.98594 17.7484C7.91875 17.7484 5.97812 16.9422 4.51562 15.4797C3.05312 14.0172 2.25156 12.0719 2.25156 10C2.25156 7.93281 3.05781 5.98281 4.51562 4.52031C5.97812 3.05781 7.91875 2.25156 9.98594 2.25156C12.0484 2.25156 13.9844 3.05312 15.4469 4.51094L16.8672 3.09062C16.4687 2.69687 16.0328 2.33125 15.5687 2.00313C13.9234 0.859375 11.9969 0.25 9.98594 0.25C4.61875 0.25 0.25 4.62344 0.25 10C0.25 15.3766 4.61875 19.75 9.98594 19.75C11.9969 19.75 13.9234 19.1406 15.5641 17.9922C16.0328 17.6641 16.4641 17.3031 16.8625 16.9047L15.4469 15.4891C13.9891 16.9469 12.0484 17.7484 9.98594 17.7484ZM19.0002 10.0397L18.9604 9.99995L19.0002 9.96016L19.0399 9.99995L19.0002 10.0397Z" fill="#F8F9FA"/>
</svg>
