<svg width="25" height="25" viewBox="0 0 25 25" fill="none" xmlns="http://www.w3.org/2000/svg">
<path d="M12.77 0.769379C6.16966 0.769379 0.769379 6.16966 0.769379 12.77C0.769379 19.3703 6.16966 24.7706 12.77 24.7706C19.3703 24.7706 24.7706 19.3703 24.7706 12.77C24.7706 6.16966 19.3703 0.769379 12.77 0.769379ZM12.77 4.36957C14.749 4.36957 16.3702 5.9908 16.3702 7.96975C16.3702 9.9487 14.749 11.5699 12.77 11.5699C10.7911 11.5699 9.16982 9.9487 9.16982 7.96975C9.16982 5.9908 10.7911 4.36957 12.77 4.36957ZM12.77 21.7012C9.76985 21.7012 7.1274 20.1435 5.56963 17.8587C5.62732 15.4586 10.3699 14.1374 12.77 14.1374C15.1701 14.1374 19.9127 15.4586 19.9704 17.8587C18.4126 20.1377 15.7702 21.7012 12.77 21.7012Z" fill="#F8F9FA"/>
</svg>
