<svg width="25" height="25" viewBox="0 0 25 25" fill="none" xmlns="http://www.w3.org/2000/svg">
<path d="M24.361 11.9738L22.8551 11.7315C22.6532 11.6969 22.5032 11.5411 22.4744 11.3392C22.4455 11.1545 22.4167 10.9699 22.3763 10.7911C22.3359 10.5949 22.4282 10.393 22.6013 10.2949L23.934 9.55638C24.1418 9.45253 24.2398 9.20444 24.1591 8.9852L23.9283 8.35055C23.8475 8.13131 23.6167 8.00438 23.3859 8.06207L21.8916 8.35055C21.6955 8.39094 21.4935 8.29285 21.3955 8.114C21.3089 7.95245 21.2166 7.7909 21.1185 7.62936C21.0147 7.45627 21.0262 7.23703 21.1589 7.08125L22.157 5.93312C22.3186 5.76003 22.3244 5.5004 22.1743 5.32155L21.7416 4.80229C21.5916 4.62343 21.332 4.58305 21.1358 4.71575L19.8261 5.5004C19.6531 5.60425 19.4338 5.58118 19.2838 5.44848C19.1453 5.32732 19.0011 5.20616 18.8569 5.09077C18.7011 4.96384 18.6376 4.75036 18.7126 4.56574L19.255 3.14067C19.3473 2.92719 19.2665 2.67333 19.0646 2.55794L18.4761 2.21754C18.2741 2.10215 18.0145 2.15408 17.876 2.34447L16.9183 3.54453C16.8029 3.68877 16.6356 3.76377 16.4279 3.68877C16.4279 3.68877 16.1048 3.55607 15.8625 3.4753C15.6721 3.41183 15.5394 3.23298 15.5451 3.03104L15.5682 1.50789C15.5798 1.27134 15.4182 1.06363 15.1874 1.02325L14.5182 0.907858C14.2874 0.867471 14.0624 1.00594 13.9931 1.23095L13.497 2.67333C13.4335 2.86373 13.2489 2.99066 13.0469 2.98489C12.9546 2.98489 12.8565 2.97912 12.7642 2.97912C12.6719 2.97912 12.5738 2.97912 12.4815 2.98489C12.2796 2.99066 12.1007 2.86373 12.0315 2.67333L11.5353 1.23095C11.4661 1.00594 11.2411 0.867471 11.0103 0.907858L10.341 1.02325C10.1103 1.06363 9.9487 1.27134 9.96024 1.50789L9.98332 3.03104C9.98909 3.23298 9.86216 3.40029 9.666 3.4753C9.5333 3.52722 9.24482 3.63684 9.10635 3.68877C8.94481 3.74647 8.75441 3.70031 8.59863 3.52145L7.64666 2.35024C7.50819 2.15985 7.24856 2.10792 7.04663 2.22331L6.45814 2.56371C6.2562 2.6791 6.16966 2.93296 6.26774 3.14643L6.81008 4.57151C6.87931 4.7619 6.82162 4.97538 6.66584 5.09654C6.5216 5.21193 6.37736 5.33309 6.23889 5.45425C6.08889 5.58695 5.86964 5.61002 5.69656 5.50617L4.40418 4.70998C4.20802 4.58305 3.94839 4.61766 3.79838 4.79652L3.36567 5.31578C3.21566 5.49463 3.22143 5.76003 3.38298 5.92735L4.38111 7.07548C4.5138 7.22549 4.53111 7.4505 4.42149 7.62359C4.32341 7.77937 4.2311 7.94091 4.14455 8.10823C4.04647 8.28708 3.85031 8.3794 3.64838 8.34478L2.15407 8.0563C1.92329 8.00438 1.6925 8.12554 1.61173 8.34478L1.38095 8.97943C1.30018 9.19867 1.39826 9.44676 1.60596 9.55061L2.93872 10.2891C3.11758 10.3872 3.20412 10.5891 3.16373 10.7853C3.12912 10.9699 3.0945 11.1488 3.06565 11.3334C3.0368 11.5353 2.88103 11.6911 2.68486 11.7257L1.17902 11.968C0.948234 11.9969 0.769379 12.1931 0.769379 12.4238V13.0989C0.769379 13.3354 0.942465 13.5316 1.17902 13.5547L2.68486 13.797C2.8868 13.8316 3.0368 13.9874 3.06565 14.1893C3.0945 14.3739 3.12335 14.5586 3.16373 14.7374C3.20412 14.9336 3.11181 15.1355 2.93872 15.2336L1.60596 15.9721C1.39826 16.0759 1.30018 16.324 1.38095 16.5433L1.61173 17.1779C1.6925 17.3972 1.92329 17.5241 2.15407 17.4664L3.64838 17.1779C3.84454 17.1375 4.04647 17.2356 4.14455 17.4145C4.2311 17.576 4.32341 17.7376 4.42149 17.8991C4.52534 18.0722 4.5138 18.2914 4.38111 18.4472L3.38298 19.5954C3.22143 19.7684 3.21566 20.0281 3.36567 20.2069L3.79838 20.7262C3.94839 20.905 4.20802 20.9454 4.40418 20.8127L5.71387 20.0281C5.88695 19.9242 6.1062 19.9473 6.2562 20.08C6.39467 20.2012 6.53891 20.3223 6.68315 20.4377C6.83893 20.5646 6.90239 20.7781 6.82739 20.9627L6.28505 22.3878C6.19274 22.6013 6.27351 22.8551 6.47545 22.9705L7.06394 23.3109C7.26587 23.4263 7.5255 23.3744 7.66397 23.184L8.63325 21.9955C8.75441 21.8455 8.95057 21.782 9.10635 21.8455C9.30252 21.9263 9.43521 21.9724 9.67754 22.0532C9.86793 22.1166 10.0006 22.2955 9.99486 22.4974L9.97178 24.0206C9.96024 24.2571 10.1218 24.4648 10.3526 24.5052L11.0218 24.6206C11.2526 24.661 11.4776 24.5225 11.5469 24.2975L12.043 22.8551C12.1065 22.6647 12.2911 22.5378 12.4931 22.5436C12.5854 22.5436 12.6835 22.5494 12.7758 22.5494C12.8681 22.5494 12.9662 22.5494 13.0585 22.5436C13.2604 22.5378 13.4393 22.6647 13.5085 22.8551L14.0047 24.2975C14.0739 24.5225 14.2989 24.661 14.5297 24.6206L15.199 24.5052C15.4298 24.4648 15.5913 24.2571 15.5798 24.0206L15.5567 22.4974C15.5509 22.2955 15.6836 22.1166 15.874 22.0532C16.1163 21.9724 16.2779 21.9089 16.4279 21.8512C16.5779 21.7993 16.7625 21.7936 16.9068 21.9724L17.8876 23.1782C18.026 23.3686 18.2857 23.4206 18.4876 23.3052L19.0761 22.9648C19.278 22.8494 19.3646 22.5955 19.2665 22.382L18.7242 20.957C18.6549 20.7666 18.7126 20.5531 18.8684 20.4319C19.0126 20.3166 19.1569 20.1954 19.2953 20.0742C19.4454 19.9415 19.6646 19.9185 19.8377 20.0223L21.1474 20.807C21.3435 20.9339 21.6032 20.8993 21.7532 20.7204L22.1859 20.2012C22.3359 20.0223 22.3301 19.7569 22.1686 19.5896L21.1704 18.4415C21.0377 18.2914 21.0204 18.0664 21.1301 17.8933C21.2281 17.7376 21.3205 17.576 21.407 17.4087C21.5051 17.2299 21.7012 17.1375 21.9032 17.1722L23.3975 17.4606C23.6283 17.5126 23.859 17.3914 23.9398 17.1722L24.1706 16.5375C24.2514 16.3183 24.1533 16.0702 23.9456 15.9663L22.6128 15.2278C22.434 15.1297 22.3474 14.9278 22.3878 14.7316C22.4224 14.547 22.457 14.3682 22.4859 14.1835C22.5147 13.9816 22.6705 13.8258 22.8667 13.7912L24.3725 13.5489C24.6033 13.52 24.7822 13.3239 24.7822 13.0931V12.4181C24.7706 12.1988 24.5975 11.9969 24.361 11.9738ZM8.48901 18.5915C8.189 19.1107 7.48511 19.2088 7.04663 18.7992C5.45424 17.2818 4.46188 15.1413 4.46188 12.77C4.46188 10.4103 5.44847 8.27555 7.02932 6.76393C7.46204 6.34852 8.17169 6.4466 8.4717 6.96586L11.7026 12.5392C11.7834 12.6835 11.7834 12.8566 11.7026 13.0008L8.48901 18.5915ZM20.8473 14.7143C19.9762 18.3665 16.6875 21.0781 12.77 21.0781C11.9565 21.0781 11.1661 20.9627 10.4276 20.7435C9.85639 20.5762 9.59099 19.9127 9.89101 19.3992L13.1046 13.8085C13.1854 13.6643 13.3412 13.5777 13.5027 13.5777H19.9473C20.5473 13.5777 20.9858 14.1316 20.8473 14.7143ZM19.9531 11.9623H13.5027C13.3354 11.9623 13.1854 11.8757 13.1046 11.7315L9.86793 6.15236C9.56791 5.63887 9.82754 4.97538 10.3987 4.80229C11.1488 4.57728 11.945 4.46189 12.77 4.46189C16.6875 4.46189 19.9762 7.17357 20.8473 10.8257C20.9858 11.4084 20.5473 11.9623 19.9531 11.9623Z" fill="#F8F9FA"/>
</svg>
