<svg width="12" height="12" viewBox="0 0 12 12" fill="none" xmlns="http://www.w3.org/2000/svg">
<path d="M11.4934 5.62271L10.7797 5.50787C10.684 5.49146 10.6129 5.41764 10.5992 5.32193C10.5855 5.23443 10.5719 5.14693 10.5527 5.06217C10.5336 4.9692 10.5773 4.8735 10.6594 4.82701L11.291 4.47701C11.3895 4.42779 11.4359 4.31021 11.3977 4.20631L11.2883 3.90553C11.25 3.80162 11.1406 3.74147 11.0313 3.76881L10.323 3.90553C10.2301 3.92467 10.1344 3.87818 10.0879 3.79342C10.0469 3.71686 10.0031 3.64029 9.95664 3.56373C9.90742 3.4817 9.91289 3.37779 9.97578 3.30397L10.4488 2.75982C10.5254 2.67779 10.5281 2.55475 10.457 2.46998L10.252 2.22389C10.1809 2.13912 10.0578 2.11998 9.96484 2.18287L9.34414 2.55475C9.26211 2.60397 9.1582 2.59303 9.08711 2.53014C9.02149 2.47272 8.95313 2.41529 8.88477 2.36061C8.81094 2.30045 8.78086 2.19928 8.81641 2.11178L9.07344 1.43639C9.11719 1.33522 9.07891 1.2149 8.9832 1.16022L8.7043 0.998888C8.60859 0.944201 8.48555 0.96881 8.41992 1.05904L7.96602 1.62779C7.91133 1.69615 7.83203 1.7317 7.73359 1.69615C7.73359 1.69615 7.58047 1.63326 7.46563 1.59498C7.37539 1.5649 7.3125 1.48014 7.31524 1.38443L7.32617 0.66256C7.33164 0.550451 7.25508 0.452013 7.1457 0.432873L6.82852 0.378185C6.71914 0.359045 6.6125 0.42467 6.57969 0.53131L6.34453 1.2149C6.31445 1.30514 6.22695 1.36529 6.13125 1.36256C6.0875 1.36256 6.04102 1.35983 5.99727 1.35983C5.95352 1.35983 5.90703 1.35983 5.86328 1.36256C5.76758 1.36529 5.68281 1.30514 5.65 1.2149L5.41484 0.53131C5.38203 0.42467 5.27539 0.359045 5.16602 0.378185L4.84883 0.432873C4.73945 0.452013 4.66289 0.550451 4.66836 0.66256L4.6793 1.38443C4.68203 1.48014 4.62188 1.55943 4.52891 1.59498C4.46602 1.61959 4.3293 1.67154 4.26367 1.69615C4.18711 1.7235 4.09688 1.70162 4.02305 1.61686L3.57188 1.06178C3.50625 0.971545 3.3832 0.946935 3.2875 1.00162L3.00859 1.16295C2.91289 1.21764 2.87188 1.33795 2.91836 1.43912L3.17539 2.11451C3.2082 2.20475 3.18086 2.30592 3.10703 2.36334C3.03867 2.41803 2.97031 2.47545 2.90469 2.53287C2.83359 2.59576 2.72969 2.6067 2.64766 2.55748L2.03516 2.18014C1.94219 2.11998 1.81914 2.13639 1.74805 2.22115L1.54297 2.46725C1.47188 2.55201 1.47461 2.67779 1.55117 2.75709L2.02422 3.30123C2.08711 3.37232 2.09531 3.47897 2.04336 3.561C1.99688 3.63482 1.95313 3.71139 1.91211 3.79068C1.86563 3.87545 1.77266 3.9192 1.67695 3.90279L0.96875 3.76607C0.859375 3.74147 0.75 3.79889 0.711719 3.90279L0.602344 4.20357C0.564063 4.30748 0.610547 4.42506 0.708984 4.47428L1.34063 4.82428C1.42539 4.87076 1.46641 4.96646 1.44727 5.05943C1.43086 5.14693 1.41445 5.2317 1.40078 5.3192C1.38711 5.4149 1.31328 5.48873 1.22031 5.50514L0.506641 5.61998C0.397266 5.63365 0.3125 5.72662 0.3125 5.836V6.15592C0.3125 6.26803 0.394531 6.361 0.506641 6.37193L1.22031 6.48678C1.31602 6.50318 1.38711 6.57701 1.40078 6.67271C1.41445 6.76021 1.42813 6.84771 1.44727 6.93248C1.46641 7.02545 1.42266 7.12115 1.34063 7.16764L0.708984 7.51764C0.610547 7.56685 0.564063 7.68443 0.602344 7.78834L0.711719 8.08912C0.75 8.19303 0.859375 8.25318 0.96875 8.22584L1.67695 8.08912C1.76992 8.06998 1.86563 8.11646 1.91211 8.20123C1.95313 8.27779 1.99688 8.35435 2.04336 8.43092C2.09258 8.51295 2.08711 8.61685 2.02422 8.69068L1.55117 9.23482C1.47461 9.31685 1.47188 9.4399 1.54297 9.52467L1.74805 9.77076C1.81914 9.85553 1.94219 9.87467 2.03516 9.81178L2.65586 9.4399C2.73789 9.39068 2.8418 9.40162 2.91289 9.46451C2.97852 9.52193 3.04688 9.57935 3.11523 9.63404C3.18906 9.6942 3.21914 9.79537 3.18359 9.88287L2.92656 10.5583C2.88281 10.6594 2.92109 10.7797 3.0168 10.8344L3.2957 10.9958C3.39141 11.0504 3.51445 11.0258 3.58008 10.9356L4.03945 10.3723C4.09688 10.3012 4.18984 10.2711 4.26367 10.3012C4.35664 10.3395 4.41953 10.3614 4.53438 10.3997C4.62461 10.4297 4.6875 10.5145 4.68477 10.6102L4.67383 11.3321C4.66836 11.4442 4.74492 11.5426 4.8543 11.5618L5.17148 11.6165C5.28086 11.6356 5.3875 11.57 5.42031 11.4633L5.65547 10.7797C5.68555 10.6895 5.77305 10.6294 5.86875 10.6321C5.9125 10.6321 5.95899 10.6348 6.00274 10.6348C6.04649 10.6348 6.09297 10.6348 6.13672 10.6321C6.23242 10.6294 6.31719 10.6895 6.35 10.7797L6.58516 11.4633C6.61797 11.57 6.72461 11.6356 6.83399 11.6165L7.15117 11.5618C7.26055 11.5426 7.33711 11.4442 7.33164 11.3321L7.3207 10.6102C7.31797 10.5145 7.38086 10.4297 7.47109 10.3997C7.58594 10.3614 7.6625 10.3313 7.73359 10.304C7.80469 10.2794 7.89219 10.2766 7.96055 10.3614L8.42539 10.9329C8.49102 11.0231 8.61406 11.0477 8.70977 10.993L8.98867 10.8317C9.08438 10.777 9.12539 10.6567 9.07891 10.5555L8.82188 9.88013C8.78906 9.7899 8.81641 9.68873 8.89024 9.63131C8.9586 9.57662 9.02695 9.5192 9.09258 9.46177C9.16367 9.39888 9.26758 9.38795 9.34961 9.43717L9.97031 9.80904C10.0633 9.8692 10.1863 9.85279 10.2574 9.76802L10.4625 9.52193C10.5336 9.43717 10.5309 9.31139 10.4543 9.23209L9.98125 8.68795C9.91836 8.61685 9.91016 8.51021 9.96211 8.42818C10.0086 8.35435 10.0523 8.27779 10.0934 8.19849C10.1398 8.11373 10.2328 8.06998 10.3285 8.08638L11.0367 8.2231C11.1461 8.24771 11.2555 8.19029 11.2938 8.08638L11.4031 7.7856C11.4414 7.6817 11.3949 7.56412 11.2965 7.5149L10.6648 7.1649C10.5801 7.11842 10.5391 7.02271 10.5582 6.92975C10.5746 6.84225 10.591 6.75748 10.6047 6.66998C10.6184 6.57428 10.6922 6.50045 10.7852 6.48404L11.4988 6.3692C11.6082 6.35553 11.693 6.26256 11.693 6.15318V5.83326C11.6875 5.72935 11.6055 5.63365 11.4934 5.62271ZM3.97109 8.75904C3.82891 9.00513 3.49531 9.05162 3.2875 8.85748C2.53281 8.13834 2.0625 7.12389 2.0625 6.00006C2.0625 4.8817 2.53008 3.86998 3.2793 3.15357C3.48438 2.9567 3.8207 3.00318 3.96289 3.24928L5.49414 5.89068C5.53242 5.95904 5.53242 6.04107 5.49414 6.10943L3.97109 8.75904ZM9.82813 6.92154C9.41524 8.6524 7.85664 9.93756 6 9.93756C5.61445 9.93756 5.23984 9.88287 4.88984 9.77896C4.61914 9.69967 4.49336 9.38521 4.63555 9.14185L6.15859 6.49225C6.19688 6.42389 6.2707 6.38287 6.34727 6.38287H9.40156C9.68594 6.38287 9.89375 6.64537 9.82813 6.92154ZM9.4043 5.61725H6.34727C6.26797 5.61725 6.19688 5.57623 6.15859 5.50787L4.62461 2.86373C4.48242 2.62037 4.60547 2.30592 4.87617 2.22389C5.23164 2.11725 5.60898 2.06256 6 2.06256C7.85664 2.06256 9.41524 3.34772 9.82813 5.07857C9.89375 5.35475 9.68594 5.61725 9.4043 5.61725Z" fill="#E8FBED"/>
</svg>
